<svg width="600" height="300" viewBox="0 0 600 300" xmlns="http://www.w3.org/2000/svg">
  <!-- Batman Logo - Accurate Recreation -->
  <path fill="#000000" d="M 300,250
    C 280,240 260,230 240,215
    C 220,200 200,180 180,160
    C 160,140 140,115 125,90
    C 110,65 100,38 95,15
    C 90,0 92,-5 100,-5
    C 115,-5 135,5 155,20
    C 175,35 190,55 200,75
    C 210,95 215,115 220,130
    C 225,145 230,155 235,160
    C 240,165 245,167 250,165
    C 255,163 258,158 260,150
    C 262,142 264,132 266,122
    C 268,112 270,102 272,95
    C 274,88 276,85 278,85
    C 280,85 282,88 284,95
    C 286,102 288,112 290,122
    C 292,132 294,142 296,150
    C 298,158 301,163 306,165
    C 311,167 316,165 321,160
    C 326,155 331,145 336,130
    C 341,115 346,95 356,75
    C 366,55 381,35 401,20
    C 421,5 441,-5 456,-5
    C 464,-5 466,0 461,15
    C 456,38 446,65 431,90
    C 416,115 396,140 376,160
    C 356,180 336,200 316,215
    C 296,230 276,240 256,250
    C 246,255 310,255 300,250 Z
    
    M 300,85
    L 290,65
    L 285,45
    L 290,25
    L 295,15
    L 300,10
    L 305,15
    L 310,25
    L 315,45
    L 310,65
    L 300,85 Z"/>
</svg>
