<svg xmlns="http://www.w3.org/2000/svg" viewBox="0 0 256 200"><defs><style>.bat-wing{fill:#000}.bat-body{fill:#1a1a1a}</style></defs><g><path class="bat-wing" d="M 30 100 Q 10 90 5 105 Q 0 120 15 130 Q 28 135 40 120 Z"/><path class="bat-wing" d="M 40 100 Q 35 75 32 50 Q 30 35 45 30 Q 58 27 65 45 Q 70 65 65 95 Z"/><path class="bat-wing" d="M 65 95 L 78 65 Q 82 50 85 42 L 85 55 Q 85 75 80 100 L 78 115 Z"/><path class="bat-wing" d="M 108 35 Q 105 15 100 5 L 102 20 Q 105 40 110 55 Z"/><path class="bat-body" d="M 118 30 L 128 8 L 138 30 Z"/><path class="bat-wing" d="M 148 35 Q 151 15 156 5 L 154 20 Q 151 40 146 55 Z"/><path class="bat-wing" d="M 191 95 L 178 65 Q 174 50 171 42 L 171 55 Q 171 75 176 100 L 178 115 Z"/><path class="bat-wing" d="M 216 100 Q 221 75 224 50 Q 226 35 211 30 Q 198 27 191 45 Q 186 65 191 95 Z"/><path class="bat-wing" d="M 226 100 Q 246 90 251 105 Q 256 120 241 130 Q 228 135 216 120 Z"/><ellipse class="bat-body" cx="128" cy="110" rx="28" ry="35" opacity="0.8"/><path class="bat-wing" d="M 120 140 Q 128 155 136 140 Q 132 150 128 150 Q 124 150 120 140 Z"/></g></svg>
