<svg width="40" height="40" viewBox="0 0 40 40" fill="none" xmlns="http://www.w3.org/2000/svg">
  <path d="M20 6C12.268 6 6 12.268 6 20C6 26.198 10.166 31.388 15.88 33.194C16.58 33.32 16.84 32.894 16.84 32.524C16.84 32.196 16.826 31.114 16.82 29.968C12.62 30.816 11.78 28.204 11.78 28.204C11.14 26.628 10.204 26.204 10.204 26.204C8.904 25.336 10.304 25.354 10.304 25.354C11.744 25.456 12.5 26.792 12.5 26.792C13.78 28.91 15.888 28.276 16.872 27.918C17 26.99 17.386 26.356 17.812 26.008C14.588 25.656 11.196 24.424 11.196 18.744C11.196 17.254 11.732 16.036 12.528 15.08C12.384 14.728 11.876 13.266 12.664 11.34C12.664 11.34 13.868 10.964 16.804 12.952C17.944 12.642 19.176 12.486 20.4 12.48C21.624 12.486 22.858 12.642 23.998 12.952C26.932 10.964 28.134 11.34 28.134 11.34C28.924 13.268 28.416 14.73 28.272 15.08C29.07 16.036 29.602 17.256 29.602 18.744C29.602 24.44 26.204 25.652 22.97 25.998C23.502 26.46 23.978 27.372 23.978 28.764C23.978 30.752 23.96 32.358 23.96 32.524C23.96 32.896 24.216 33.326 24.928 33.192C30.638 31.384 34.8 26.196 34.8 20C34.8 12.268 28.532 6 20.8 6" fill="#ffffff"/>
</svg>